<svg preserveAspectRatio="xMidYMid meet" width="20" fill="#fff" data-bbox="-0.05 -0.047 155.76 155.422" xmlns="http://www.w3.org/2000/svg" viewBox="-0.05 -0.047 155.76 155.422" role="presentation" aria-hidden="true">
    <g>
        <path d="M92.3 116.4c11.4-.3 14.5-13.3 18.9-19.6 4.5-6.3 10.7-6.3 13.9-4.7 2.8 1.4 21.1 14 28.5 25.8 3.4 5.8 2.8 9.6-2.6 14.5-11 9.8-27.2 21.8-31.3 22.8-4.1 1-37.8-.9-80.7-43.8S-.5 39 .4 33.9C.9 27.8 22.1 4.6 22.1 4.6S27-2.7 35.5 1c9.7 4.2 25.4 27.8 25.4 27.8s3.4 5.8-.6 11.7c-3.8 5.8-23.7 10-23.7 20.2S46.8 82 59.4 95.1s21.5 21.6 32.9 21.3z"></path>
    </g>
</svg>