<svg preserveAspectRatio="xMidYMid meet" data-bbox="49.193 12.199 106.009 173.6" xmlns="http://www.w3.org/2000/svg" viewBox="49.193 12.199 106.009 173.6" role="presentation" aria-hidden="true">
    <g>
        <path d="M153.17 53.077c0-5.047-4.037-9.084-9.084-9.084s-9.084 4.037-9.084 9.084 4.037 9.084 9.084 9.084c1.135 0 2.145-.252 3.154-.505.757 2.271.631 5.425-1.009 9.084-14.004 29.648-50.591 30.784-68.254 29.522-1.135-4.542-5.047-7.948-9.715-8.327-12.616-47.69-.126-61.315 14.13-68.254 4.037-1.892 7.191-2.271 9.588-2.019.252 4.794 4.163 8.705 9.084 8.705 5.047 0 9.084-4.037 9.084-9.084s-4.037-9.084-9.084-9.084c-2.397 0-4.542.883-6.182 2.397-3.911-.757-9.336-.757-15.897 2.397-23.465 11.356-29.142 35.453-18.04 77.213-2.649 2.019-4.416 5.173-4.416 8.831 0 1.514.252 2.902.883 4.163l-.252-.252c-.631.883-13.878 22.709-4.794 42.643 6.056 13.373 20.438 22.331 42.769 26.62.883 5.425 5.551 9.588 11.228 9.588 6.182 0 11.355-5.047 11.355-11.355 0-6.182-5.047-11.355-11.355-11.355-4.163 0-7.822 2.271-9.715 5.551-19.808-3.911-32.298-11.355-37.344-22.331-6.056-13.373.757-28.765 3.406-33.812 1.514.757 3.154 1.135 4.92 1.135 4.163 0 7.822-2.397 9.588-5.803 3.028.252 6.687.505 10.598.505 20.943 0 51.727-5.299 65.226-34.442 3.28-7.065 2.523-13.626-.252-18.041.254-.882.38-1.891.38-2.774zm-47.059 116.196a5.062 5.062 0 0 1 5.047 5.047 5.062 5.062 0 0 1-5.047 5.047 5.062 5.062 0 0 1-5.047-5.047c.001-2.776 2.272-5.047 5.047-5.047z" fill="#fff"></path>
    </g>
</svg>